Coordinates
version=1
nRows=10
nColumns=23
inDegrees=yes

Units are S.I. units (second, meters, Newtons, ...)
If the header above contains a line with 'inDegrees', this indicates whether rotational values are in degrees (yes) or radians (no).

endheader
time	pelvis_tilt	pelvis_list	pelvis_rotation	pelvis_tx	pelvis_ty	pelvis_tz	hip_flexion_r	hip_adduction_r	hip_rotation_r	knee_angle_r	knee_angle_r_beta	ankle_angle_r	subtalar_angle_r	mtp_angle_r	hip_flexion_l	hip_adduction_l	hip_rotation_l	knee_angle_l	knee_angle_l_beta	ankle_angle_l	subtalar_angle_l	mtp_angle_l
      0.00000000	     -4.49166053	     -5.44191131	     -5.18866530	      2.20812731	      0.95620150	      1.01235783	     32.29839172	      8.01571197	    -16.47474110	     26.86479081	      0.46887905	     10.32601675	      7.93991219	      0.00000000	     -7.91639188	     -5.03810686	     -7.33585795	     59.57408026	      1.03976385	    -16.55299875	    -13.51119555	      0.00000000
      0.00666667	     -3.63485595	     -5.91026031	     -5.78211204	      2.20729543	      0.95213728	      1.01275088	     31.70996189	      8.43264916	    -15.91928676	     30.01200562	      0.52380831	     10.25840580	      6.33218786	      0.00000000	     -7.19143050	     -5.87067925	     -7.91562083	     63.23004586	      1.10357249	    -15.65547991	    -13.80115415	      0.00000000
      0.01333333	     -3.07408365	     -6.18047962	     -6.38571313	      2.20625717	      0.94749613	      1.01326341	     31.41309710	      8.82364902	    -14.94130164	     33.01602928	      0.57623842	     10.18635931	      4.36090974	      0.00000000	     -6.12087600	     -6.54344473	     -8.40136467	     66.83501121	      1.16649100	    -14.80983084	    -14.06546510	      0.00000000
      0.02000000	     -2.59922924	     -6.45873000	     -6.98355076	      2.20512807	      0.94274152	      1.01382614	     31.12256848	      9.34440413	    -13.77506669	     35.85321723	      0.62575669	     10.36722719	      2.23817406	      0.00000000	     -4.97116987	     -7.22738865	     -8.78402193	     70.28817903	      1.22676015	    -14.01366846	    -14.53440663	      0.00000000
      0.02666667	     -2.24698493	     -6.77284754	     -7.49892174	      2.20400041	      0.93798762	      1.01439240	     30.84771181	      9.92694286	    -12.68971523	     38.51839640	      0.67227284	     10.86638792	      0.28496822	      0.00000000	     -3.65384262	     -8.03169904	     -9.04872380	     73.60285200	      1.28461211	    -13.18704282	    -14.84525807	      0.00000000
      0.03333333	     -2.05214280	     -7.09229162	     -7.94932868	      2.20281476	      0.93331305	      1.01496382	     30.61205898	     10.56864843	    -11.62598639	     40.98110753	      0.71525526	     11.66774586	     -1.48079884	      0.00000000	     -2.09156052	     -8.91997949	     -9.18481021	     76.76373391	      1.33977990	    -12.38771853	    -15.18294638	      0.00000000
      0.04000000	     -2.01058050	     -7.37399386	     -8.35257412	      2.20152415	      0.92883848	      1.01559829	     30.39449214	     11.23149157	    -10.56225423	     43.22253405	      0.75437553	     12.75526689	     -3.05020051	      0.00000000	     -0.25723413	     -9.83667481	     -9.18075477	     79.74592251	      1.39182891	    -11.59007231	    -15.55444974	      0.00000000
      0.04666667	     -2.11533895	     -7.55242917	     -8.69570955	      2.20012827	      0.92465589	      1.01619870	     30.18258087	     11.82946162	     -9.48492332	     45.22292813	      0.78928899	     14.03116241	     -4.55769377	      0.00000000	      1.86841649	    -10.68619502	     -9.02712546	     82.51110703	      1.44009049	    -10.80633314	    -15.98841238	      0.00000000
      0.05333333	     -2.31146879	     -7.77293548	     -8.93266678	      2.19873692	      0.92093671	      1.01679848	     29.83746012	     12.45849992	     -8.53187429	     46.87688719	      0.81815602	     15.46255467	     -5.73695698	      0.00000000	      4.21596998	    -11.64527446	     -8.69508091	     85.05198866	      1.48443724	    -10.01684095	    -16.36480629	      0.00000000
      0.06000000	     -2.52813775	     -7.99044242	     -9.05098544	      2.19735102	      0.91784470	      1.01729855	     29.27983301	     13.05200269	     -7.66382595	     48.16619490	      0.84065869	     16.96164274	     -6.69243225	      0.00000000	      6.71043751	    -12.59341506	     -8.16433191	     87.30444914	      1.52375009	     -9.26365706	    -16.78631317	      0.00000000
